<?xml version="1.0" encoding="UTF-8"?>
<svg version="1.1" xmlns="http://www.w3.org/2000/svg" width="512" height="512">
<path d="M0 0 C0.87527344 0.36222656 1.75054687 0.72445313 2.65234375 1.09765625 C17.6215562 7.90184373 27.87299618 20.12329708 34.30078125 35.06005859 C35.27756591 37.77009033 35.80327866 40.50729495 36.3449707 43.33129883 C37.52293049 49.89149994 37.52293049 49.89149994 41.30078125 55.25 C44.05395147 56.97853416 44.05395147 56.97853416 47.0078125 58.453125 C61.96978883 66.18803705 73.93613045 81.15321504 83 95 C83.62519531 95.92941406 84.25039063 96.85882813 84.89453125 97.81640625 C93.18601421 110.97422233 98.59116654 126.67105983 101 142 C101.17149567 143.07262589 101.34299133 144.14525177 101.51968384 145.25038147 C101.98446198 148.87870143 102.13769437 152.34598653 102.15771484 156.00170898 C102.16279556 156.6628772 102.16787628 157.32404541 102.17311096 158.00524902 C102.183736 159.42818864 102.19238637 160.85114415 102.19923019 162.27410698 C102.21113028 164.53268201 102.23060838 166.79107518 102.25234985 169.04957581 C102.31360719 175.46666356 102.36797568 181.88372691 102.40136719 188.30102539 C102.42239743 192.23852789 102.45775759 196.17568761 102.50212479 200.11299324 C102.5162083 201.60515354 102.5249898 203.09737435 102.52817917 204.5895977 C102.54638435 212.28889087 102.70155272 218.91960568 106 226 C107.24358888 234.76113966 105.80270478 242.8673337 100.4921875 250.03515625 C93.3467989 257.86184934 85.25088365 259.48096792 75 260 C73.68 264.29 72.36 268.58 71 273 C74.19308838 272.9685791 74.19308838 272.9685791 77.45068359 272.93652344 C84.51530086 272.86999015 91.57993262 272.82596005 98.64478111 272.79275131 C102.92465277 272.77195241 107.20420109 272.7437773 111.48388672 272.69824219 C115.62066411 272.65450733 119.75713218 272.63080513 123.89412308 272.62049103 C125.46566252 272.61314888 127.03718667 272.59881234 128.60859299 272.57707977 C141.22195388 272.40971028 151.45341633 274.06932496 161 283 C168.30127423 291.1290831 171.11499499 299.28845955 171.14044189 310.17765808 C171.14489858 311.24541527 171.14489858 311.24541527 171.1494453 312.33474332 C171.1581002 314.71430378 171.15963782 317.09381374 171.16113281 319.47338867 C171.1657633 321.18201809 171.17078827 322.89064649 171.17617798 324.59927368 C171.18928273 329.23793047 171.19574331 333.8765728 171.20018864 338.5152452 C171.20312279 341.41578283 171.20722827 344.31631654 171.21169281 347.21685219 C171.22536337 356.29910647 171.23503189 365.38135174 171.2388947 374.4636156 C171.24337292 384.93426618 171.26091171 395.40478606 171.2898953 405.87539691 C171.3115411 413.9775005 171.32160055 422.07956739 171.32293582 430.18169957 C171.32398187 435.01659729 171.32984701 439.85137207 171.34775543 444.68623924 C171.36428602 449.23760375 171.36636749 453.78875357 171.35761642 458.34013748 C171.35684869 460.00494399 171.36115386 461.66976229 171.37107468 463.33453941 C171.4477583 477.0113444 170.14244294 488.41794159 160.3359375 498.75390625 C154.2654037 504.28391307 147.13516608 508.06191747 138.82983398 508.17700195 C138.01896835 508.18983719 137.20810272 508.20267242 136.37266541 508.21589661 C135.50589676 508.22328354 134.63912811 508.23067047 133.74609375 508.23828125 C132.84883072 508.246353 131.95156769 508.25442474 131.02711487 508.26274109 C129.13341183 508.27654841 127.23968425 508.2872855 125.34594727 508.29516602 C122.44435238 508.31245916 119.54387402 508.35638317 116.64257812 508.40039062 C114.8020917 508.41051127 112.96159562 508.41902933 111.12109375 508.42578125 C110.25230087 508.44328934 109.383508 508.46079742 108.48838806 508.47883606 C102.51461422 508.45719883 102.51461422 508.45719883 99.92993164 506.16088867 C99 504 99 504 99 501 C88.77 501 78.54 501 68 501 C67.67 502.65 67.34 504.3 67 506 C64.43548907 508.56451093 63.49138115 508.25118289 59.92927933 508.25447559 C58.84914479 508.26030779 57.76901026 508.26613998 56.65614438 508.27214891 C55.45986881 508.26836958 54.26359324 508.26459026 53.03106689 508.26069641 C51.76769021 508.26452196 50.50431352 508.26834751 49.20265269 508.27228898 C45.68423628 508.2826219 42.16592115 508.28037377 38.64749622 508.27610838 C34.85732216 508.27365063 31.06717309 508.28264357 27.27700806 508.29014587 C19.84633248 508.30292259 12.41569298 508.30468278 4.98500827 508.30234561 C-1.05418041 508.30056519 -7.09335811 508.30230615 -13.13254547 508.30657005 C-13.99090414 508.30716524 -14.84926281 508.30776043 -15.73363234 508.30837366 C-17.47722489 508.30958537 -19.22081743 508.3107995 -20.96440998 508.31201603 C-37.33252877 508.32290353 -53.70062699 508.32072367 -70.06874695 508.31463119 C-85.04753419 508.30946392 -100.02625636 508.32071029 -115.00503072 508.33972941 C-130.37555785 508.35909663 -145.74605418 508.36736558 -161.1165936 508.36360615 C-169.74975553 508.36169203 -178.3828621 508.36420194 -187.0160141 508.37832069 C-194.36758994 508.39022146 -201.71907637 508.39165427 -209.07065341 508.37953053 C-212.82226239 508.37363193 -216.57370775 508.37256923 -220.32530594 508.38453293 C-224.39137843 508.39734875 -228.45705968 508.38695023 -232.52313232 508.3742218 C-233.71048501 508.38159609 -234.89783769 508.38897037 -236.12117076 508.39656812 C-242.63526615 508.35352246 -247.60677369 508.09500927 -252.64453125 503.5 C-257.2098052 497.63690569 -257.20918317 493.32534263 -257.25 486.1875 C-257.270625 485.29740234 -257.29125 484.40730469 -257.3125 483.49023438 C-257.34405879 478.16863399 -256.86095414 474.64557845 -254 470 C-253.608125 469.21625 -253.21625 468.4325 -252.8125 467.625 C-252.544375 467.08875 -252.27625 466.5525 -252 466 C-252.70125 465.17757813 -253.4025 464.35515625 -254.125 463.5078125 C-259.17959539 457.56575541 -264.20435479 451.61366824 -269.0078125 445.46484375 C-270.44831079 443.68258018 -271.95212286 441.95087403 -273.4921875 440.25390625 C-274.31976563 439.32449219 -275.14734375 438.39507812 -276 437.4375 C-276.763125 436.61121094 -277.52625 435.78492188 -278.3125 434.93359375 C-280.70429135 430.77564166 -280.93268521 427.59408292 -280 423 C-278.32623883 418.43583334 -276.30660112 414.0846041 -274.19238281 409.70999146 C-272.3246485 405.8428907 -270.51567467 401.94815421 -268.6953125 398.05859375 C-268.11840668 396.83256691 -268.11840668 396.83256691 -267.52984619 395.58177185 C-263.57908987 387.16539511 -259.83876836 378.66077394 -256.1232605 370.13848877 C-255.00080787 367.5643527 -253.87509069 364.99166947 -252.74829102 362.41943359 C-250.11309006 356.40333659 -247.4797336 350.38643274 -244.84991455 344.36798096 C-242.61275586 339.24874571 -240.36923389 334.1323999 -238.1159668 329.02023315 C-237.41934879 327.43635549 -236.72529349 325.85134797 -236.03393555 324.26516724 C-235.08244165 322.08273782 -234.1223814 319.90427729 -233.16015625 317.7265625 C-232.88285172 317.08485611 -232.60554718 316.44314972 -232.31983948 315.78199768 C-229.75069415 310.01428439 -229.75069415 310.01428439 -227 308 C-223.3125 307.3125 -223.3125 307.3125 -220 307 C-219.91363281 306.31035156 -219.82726562 305.62070312 -219.73828125 304.91015625 C-218.31992824 295.42410725 -214.85116486 287.85116486 -208 281 C-200.51932781 275.76603976 -193.96105357 272.74048753 -184.70947266 272.77294922 C-183.6547728 272.77251114 -183.6547728 272.77251114 -182.57876587 272.77206421 C-180.27373558 272.77344838 -177.96903574 272.78896603 -175.6640625 272.8046875 C-174.05838192 272.80842088 -172.45269906 272.81126632 -170.84701538 272.81326294 C-166.63512811 272.82087379 -162.42338029 272.84050021 -158.21154785 272.8626709 C-153.90797817 272.8831844 -149.6043858 272.8922764 -145.30078125 272.90234375 C-136.86712374 272.92374866 -128.43357925 272.95785361 -120 273 C-120.2165625 272.32453125 -120.433125 271.6490625 -120.65625 270.953125 C-121.07390625 269.61507812 -121.07390625 269.61507812 -121.5 268.25 C-121.91765625 266.92742187 -121.91765625 266.92742187 -122.34375 265.578125 C-123 263 -123 263 -123 259 C-123.70125 259.03480469 -124.4025 259.06960938 -125.125 259.10546875 C-134.89314501 259.38417941 -141.0045266 257.6766718 -148.23828125 250.96875 C-152.81271723 245.85674172 -155.10085721 239.63578242 -155.25 232.8125 C-155.27578125 232.11769531 -155.3015625 231.42289063 -155.328125 230.70703125 C-155.02185143 228.18027431 -154.44905142 226.60163015 -153.50488281 224.27587891 C-151.47351581 218.25830304 -151.57495468 212.30471142 -151.58930969 206.00528145 C-151.59385712 203.82760873 -151.57959096 201.65071985 -151.56091309 199.47312927 C-151.52437552 194.83626522 -151.51049338 190.19948656 -151.5 185.5625 C-151.39867104 141.12101725 -151.39867104 141.12101725 -144.875 122.4375 C-144.58077148 121.57398926 -144.28654297 120.71047852 -143.98339844 119.82080078 C-136.36603376 98.35905305 -136.36603376 98.35905305 -129 92 C-127.125 92.12890625 -127.125 92.12890625 -125 92.5625 C-121.17193394 92.73138527 -120.11931151 92.10219716 -117.140625 89.55078125 C-114.26230334 86.50221034 -111.62108515 83.26945884 -109 80 C-108.05972676 78.86516547 -107.11711619 77.7322624 -106.171875 76.6015625 C-105.45515625 75.74304688 -104.7384375 74.88453125 -104 74 C-104.33 73.67 -104.66 73.34 -105 73 C-105.46561084 68.96470608 -105.60576902 66.80769203 -103.125 63.5 C-102.11339233 62.6304232 -101.06520013 61.80303336 -100 61 C-99.20207031 60.39671875 -98.40414062 59.7934375 -97.58203125 59.171875 C-90.07317556 53.71492227 -90.07317556 53.71492227 -86 53 C-86.0825 52.113125 -86.165 51.22625 -86.25 50.3125 C-86.18978447 35.40915541 -77.06145181 22.11516063 -67 12 C-66.48179687 11.44699219 -65.96359375 10.89398438 -65.4296875 10.32421875 C-61.54734532 6.55367176 -56.90062358 4.19805033 -52.125 1.75 C-51.46491943 1.4082373 -50.80483887 1.06647461 -50.12475586 0.71435547 C-35.17062187 -6.64266057 -15.18571801 -6.58839828 0 0 Z " fill="#010101" transform="translate(281,4)"/>
<path d="M0 0 C1.35913478 -0.00505188 2.71826288 -0.01228565 4.07737583 -0.02149814 C7.79294084 -0.04035657 11.50784403 -0.02822359 15.22339189 -0.01077521 C19.23777384 0.00263022 23.25206096 -0.01284958 27.26643372 -0.02459717 C35.12268729 -0.04295402 42.97869177 -0.03447479 50.83493752 -0.01650894 C57.22054197 -0.00247111 63.60607891 0.00140731 69.99169731 -0.00195122 C71.35604429 -0.00266738 71.35604429 -0.00266738 72.74795384 -0.00339801 C74.5958272 -0.00442436 76.44370055 -0.00547972 78.29157387 -0.00656378 C94.62273131 -0.01512676 110.95376864 0.00153164 127.28489685 0.03126526 C143.12609399 0.06010642 158.96711815 0.06718343 174.80833435 0.05177307 C192.06655384 0.03500719 209.32469123 0.03098029 226.58291286 0.04848343 C228.42360142 0.05032779 230.26428999 0.05216251 232.10497856 0.0539875 C233.4633961 0.05535564 233.4633961 0.05535564 234.84925641 0.05675141 C241.22659115 0.06235403 247.60388578 0.05905222 253.98121834 0.05244255 C261.75384676 0.0447064 269.52630498 0.05147222 277.29889912 0.07661759 C281.26348437 0.08910559 285.22780473 0.09526772 289.19239998 0.08407593 C292.82380332 0.07401835 296.45467895 0.08252483 300.0860182 0.10565711 C302.01726689 0.11324041 303.94856203 0.10127824 305.87978369 0.08855337 C313.73820831 0.16362798 319.75229831 0.87782888 325.5400238 6.69850159 C325.99506287 7.37654846 326.45010193 8.05459534 326.91893005 8.75318909 C327.39201599 9.43639221 327.86510193 10.11959534 328.3525238 10.82350159 C330.68397368 14.55059447 330.61389996 17.07376755 330.62860107 21.49650574 C330.63227776 22.21127528 330.63595445 22.92604481 330.63974255 23.66247404 C330.65080049 26.06983544 330.65462683 28.47715371 330.65843201 30.88453674 C330.6646952 32.60582111 330.67134187 34.32710411 330.67834473 36.04838562 C330.69577086 40.73460059 330.70631145 45.42080534 330.71455026 50.1070447 C330.7196983 53.03485447 330.7257742 55.96266107 330.73206139 58.8904686 C330.75112024 68.05068121 330.76534841 77.21088574 330.77367336 86.37111437 C330.78344133 96.94486366 330.80974646 107.51840336 330.85017425 118.0920788 C330.88034534 126.26372824 330.89514328 134.43531764 330.89845437 142.60702169 C330.90080423 147.48777453 330.90975604 152.36830365 330.93491554 157.24899673 C330.95821782 161.84386022 330.96242083 166.43835305 330.95215416 171.03326035 C330.95165917 172.71664921 330.95796875 174.40005644 330.97171021 176.08338928 C331.10755192 193.71571135 331.10755192 193.71571135 325.06944752 200.12757301 C319.45854561 205.18713282 314.31998963 205.91104802 307.00486755 205.90162659 C305.34861062 205.92190121 303.69236065 205.9427517 302.03611755 205.96412659 C299.43774999 205.98678963 296.83965782 206.00322666 294.24119568 206.00904846 C291.72442076 206.01854573 289.20886934 206.05226779 286.69236755 206.08912659 C285.91420685 206.08408112 285.13604614 206.07903564 284.33430481 206.07383728 C280.00428921 206.12408779 280.00428921 206.12408779 276.53074646 208.47438049 C275.37686628 210.72318368 275.37686628 210.72318368 274.48143005 213.62818909 C264.25143005 213.62818909 254.02143005 213.62818909 243.48143005 213.62818909 C242.49143005 211.64818909 241.50143005 209.66818909 240.48143005 207.62818909 C237.10234026 205.93864419 233.26479855 206.47407848 229.54719543 206.4699707 C228.61035309 206.46503273 227.67351075 206.46009475 226.70827925 206.45500714 C223.54981966 206.43957403 220.39138049 206.43125583 217.2328949 206.42286682 C214.9764691 206.41329286 212.72004512 206.40328307 210.46362305 206.39286804 C204.32138693 206.36576066 198.17914309 206.34478274 192.03688002 206.32486606 C185.62398325 206.3030424 179.21111047 206.27563604 172.79823303 206.24880981 C162.02923051 206.20451839 151.26022121 206.16369146 140.49119568 206.12550354 C129.39776143 206.08615579 118.30433815 206.0447313 107.21092224 206.00050354 C106.18567743 205.99641713 106.18567743 205.99641713 105.1397206 205.99224817 C101.71090942 205.97856881 98.2820984 205.96484851 94.85328746 205.95110786 C66.39602455 205.83712091 37.93873757 205.73039001 9.48143005 205.62818909 C9.4556488 204.47061096 9.42986755 203.31303284 9.40330505 202.12037659 C9.34699656 200.5812778 9.28964985 199.04221676 9.23143005 197.50318909 C9.21725037 196.74264221 9.20307068 195.98209534 9.1884613 195.19850159 C8.95977157 189.89289985 7.84236893 186.9198495 4.48143005 182.62818909 C3.78713626 181.30903089 3.1061251 179.98169502 2.48143005 178.62818909 C3.03830505 178.02232971 3.59518005 177.41647034 4.16893005 176.79225159 C8.77606744 171.73373925 13.19514125 166.59093119 17.4306488 161.21803284 C20.40454228 157.46243022 23.45551979 153.7711527 26.5009613 150.07350159 C27.48129333 148.8630719 27.48129333 148.8630719 28.48143005 147.62818909 C29.06279724 147.00686096 29.64416443 146.38553284 30.2431488 145.74537659 C32.11672867 142.54196875 31.87132522 140.29014562 31.48143005 136.62818909 C30.58597009 133.87853553 29.39413063 131.33881008 28.10643005 128.75318909 C27.78932068 128.07772034 27.4722113 127.40225159 27.14549255 126.70631409 C25.53863924 123.01478842 25.53863924 123.01478842 22.48143005 120.62818909 C18.87701672 120.23640503 17.09744376 120.21751328 14.04393005 122.25318909 C12.22416512 124.52880035 12.22416512 124.52880035 12.54393005 127.31568909 C13.29186094 130.49297872 13.29186094 130.49297872 14.6181488 132.55787659 C15.97464256 135.15663304 16.55642195 136.67262619 16.48143005 139.62818909 C13.77074589 143.91160684 10.45672452 147.43205792 6.94871521 151.07203674 C4.94678315 153.19521727 3.15129907 155.45385586 1.35643005 157.75318909 C-1.5359199 161.39850618 -4.45245195 165.02204122 -7.39356995 168.62818909 C-8.13349182 169.53568909 -8.8734137 170.44318909 -9.63575745 171.37818909 C-13.13461376 175.55939498 -13.13461376 175.55939498 -15.38670349 175.96290588 C-16.14548798 176.00069153 -16.90427246 176.03847717 -17.68605042 176.07740784 C-18.97912613 176.14496277 -18.97912613 176.14496277 -20.29832458 176.21388245 C-24.27729886 176.35664741 -28.25553101 176.47115107 -32.23634338 176.54811096 C-34.32419759 176.60106613 -36.41154165 176.68264321 -38.49708557 176.79420471 C-56.71453482 177.75667975 -56.71453482 177.75667975 -62.43629456 172.69996643 C-65.13843467 169.80197007 -67.36418776 166.66221031 -69.46095276 163.30628967 C-70.77075315 161.22805491 -72.27779685 159.36407266 -73.8506012 157.47975159 C-74.68098672 156.40697898 -75.50802513 155.33160386 -76.33106995 154.25318909 C-79.82287614 149.69650583 -83.40158617 145.44302307 -87.5693512 141.47193909 C-88.51856995 139.62818909 -88.51856995 139.62818909 -87.81471252 137.04469299 C-86.27620834 132.98934781 -84.53610134 129.06212931 -82.72950745 125.12037659 C-82.35381622 124.29388611 -81.978125 123.46739563 -81.59104919 122.61585999 C-80.7821957 120.83691631 -79.97206479 119.058553 -79.16078186 117.28071594 C-77.00511363 112.55583422 -74.85974428 107.82628065 -72.71388245 103.09693909 C-72.27789734 102.13653717 -71.84191223 101.17613525 -71.39271545 100.18663025 C-67.14053215 90.81170916 -62.94435441 81.41234593 -58.76856995 72.00318909 C-58.44926514 71.28435547 -58.12996033 70.56552185 -57.80097961 69.8249054 C-53.33770515 59.77493938 -48.91742148 49.70650654 -44.51856995 39.62818909 C-44.18856995 39.62818909 -43.85856995 39.62818909 -43.51856995 39.62818909 C-43.33280816 48.2427867 -43.19086578 56.85654119 -43.10407257 65.47264957 C-43.06240465 69.47402995 -43.00593958 73.47403553 -42.91505432 77.47462463 C-42.82781404 81.33917065 -42.78023269 85.20239889 -42.759552 89.06785393 C-42.74482492 90.53876424 -42.71606313 92.00960624 -42.67272949 93.47995186 C-42.34529076 105.05577168 -42.34529076 105.05577168 -45.28248596 108.99217224 C-47.44239807 110.83692932 -47.44239807 110.83692932 -49.60072327 112.24560547 C-51.82161869 113.84665818 -52.54685905 115.09358639 -53.51856995 117.62818909 C-54.16450711 122.95341525 -54.46069037 128.65983655 -52.01856995 133.56568909 C-48.2669171 138.16146383 -44.78158458 141.04398123 -38.8349762 142.10865784 C-33.05119925 142.40546747 -28.88853599 141.53399956 -24.17481995 138.12428284 C-19.39124591 133.80327138 -17.86511364 129.57381051 -17.14356995 123.44068909 C-17.63843409 118.40957033 -19.37258047 114.58628282 -22.51856995 110.62818909 C-23.52916473 110.06082031 -24.53975952 109.49345154 -25.58097839 108.90888977 C-28.51856995 106.62818909 -28.51856995 106.62818909 -29.24009705 103.60359192 C-29.22677338 102.42222656 -29.21344971 101.24086121 -29.19972229 100.0236969 C-29.20103653 99.0425869 -29.20103653 99.0425869 -29.20237732 98.04165649 C-29.19820811 95.88697926 -29.15160145 93.73544473 -29.10450745 91.58131409 C-29.09331259 90.08489177 -29.08477377 88.58844743 -29.07878113 87.09199524 C-29.05590453 83.15900129 -28.99699451 79.22734326 -28.93055725 75.2948761 C-28.86910761 71.27986219 -28.84176059 67.26463175 -28.8115387 63.24928284 C-28.74724739 55.37497279 -28.64488525 47.50174725 -28.51856995 39.62818909 C-26.50698737 42.18279178 -24.92804542 44.61171847 -23.60499573 47.5796051 C-23.26098724 48.34462845 -22.91697876 49.10965179 -22.56254578 49.89785767 C-22.19998688 50.7176561 -21.83742798 51.53745453 -21.46388245 52.38209534 C-21.08045685 53.23818893 -20.69703125 54.09428253 -20.30198669 54.97631836 C-19.07779561 57.71236227 -17.86053824 60.45142601 -16.64356995 63.19068909 C-15.83283986 65.00665323 -15.02164658 66.82241066 -14.2099762 68.63795471 C-13.03304493 71.27074749 -11.85698841 73.90390217 -10.68464661 76.53874207 C-8.26995295 81.96482602 -5.81494707 87.36860128 -3.29151917 92.74513245 C-2.51856995 94.62818909 -2.51856995 94.62818909 -2.51856995 96.62818909 C-1.08201141 96.70950372 0.35587835 96.76752468 1.79393005 96.81568909 C2.59443787 96.85049377 3.39494568 96.88529846 4.2197113 96.92115784 C6.51129864 96.78626114 6.51129864 96.78626114 8.2743988 95.49147034 C10.07395779 92.71351035 9.77049094 90.92494381 9.48143005 87.62818909 C8.50878241 84.680366 7.21361091 81.90835531 5.89549255 79.10084534 C5.52267151 78.28270355 5.14985046 77.46456177 4.76573181 76.62162781 C3.55635768 73.97307591 2.33172215 71.33190944 1.10643005 68.69068909 C-0.14086241 65.97409527 -1.38466064 63.25592234 -2.62797546 60.5375061 C-3.44903408 58.74260381 -4.27135546 56.94827861 -5.09495544 55.15454102 C-8.74459577 47.18924019 -12.21856321 39.15549504 -15.52394104 31.0405426 C-15.87021545 30.21739563 -16.21648987 29.39424866 -16.57325745 28.54615784 C-16.85669006 27.85288391 -17.14012268 27.15960999 -17.43214417 26.44532776 C-18.80163736 24.15473498 -20.2633158 23.03461488 -22.51856995 21.62818909 C-25.6697532 20.90773542 -25.6697532 20.90773542 -28.51856995 20.62818909 C-28.18140856 14.22212274 -27.03489444 10.26094171 -22.51856995 5.62818909 C-15.47238649 0.12539981 -8.66997934 -0.08219437 0 0 Z " fill="#E1E3E6" transform="translate(105.51856994628906,291.37181091308594)"/>
<path d="M0 0 C0.80308594 0.64839844 1.60617187 1.29679687 2.43359375 1.96484375 C23.46784699 19.79109997 36.00787105 46.06207728 40 73 C40.08189682 74.93923283 40.11791669 76.88082094 40.11352539 78.82177734 C40.11344986 79.94248627 40.11337433 81.06319519 40.11329651 82.21786499 C40.10813522 83.41182892 40.10297394 84.60579285 40.09765625 85.8359375 C40.09553383 87.68767075 40.09553383 87.68767075 40.09336853 89.57681274 C40.08778272 93.50956675 40.07523275 97.44226328 40.0625 101.375 C40.05691912 104.04557208 40.05292058 106.71614363 40.04882812 109.38671875 C40.03781792 115.92450122 40.02056297 122.46224088 40 129 C36.37 128.67 32.74 128.34 29 128 C28.94392578 125.88658203 28.94392578 125.88658203 28.88671875 123.73046875 C28.82106503 121.88278561 28.75461749 120.03513055 28.6875 118.1875 C28.66494141 117.25873047 28.64238281 116.32996094 28.61914062 115.37304688 C28.58369141 114.48037109 28.54824219 113.58769531 28.51171875 112.66796875 C28.48553467 111.84578857 28.45935059 111.0236084 28.43237305 110.17651367 C27.90028966 107.4980702 27.18325204 106.61014447 25 105 C22.18372356 104.42275079 19.46820856 103.98442558 16.625 103.625 C-1.35603566 100.96140877 -18.69545126 92.89394079 -30.10546875 78.30859375 C-31.80108932 75.90675595 -33.42353792 73.48113634 -35 71 C-35.66 70.01 -36.32 69.02 -37 68 C-36.51545481 63.27568437 -33.03821524 60.88155898 -29.75 57.8125 C-15.39687388 44.54661445 -15.39687388 44.54661445 -7.6875 27.5625 C-7.6459589 24.02286822 -7.6459589 24.02286822 -9.6875 22.0625 C-12.42308575 20.80560925 -14.01450033 20.67282195 -17 21 C-18.86864734 22.4054767 -18.86864734 22.4054767 -20.375 24.4375 C-20.97570312 25.17355469 -21.57640625 25.90960938 -22.1953125 26.66796875 C-23.88842799 28.85582578 -25.57025826 31.05186907 -27.25 33.25 C-54.14857539 68.11630484 -95.49243639 92.63218731 -139.1953125 98.58984375 C-144.88830452 99.31699409 -150.57091321 99.95198472 -156.3046875 100.23828125 C-156.98982422 100.27356934 -157.67496094 100.30885742 -158.38085938 100.34521484 C-160.26105082 100.43222664 -162.14226963 100.4961567 -164.0234375 100.55859375 C-166.98472309 100.7530351 -166.98472309 100.7530351 -168.8515625 102.41015625 C-170.97994367 105.35658869 -171.17191781 107.4162427 -171.31640625 111.0078125 C-171.37924805 112.48701172 -171.37924805 112.48701172 -171.44335938 113.99609375 C-171.48267578 115.02863281 -171.52199219 116.06117188 -171.5625 117.125 C-171.60568359 118.16527344 -171.64886719 119.20554688 -171.69335938 120.27734375 C-171.79962768 122.8513983 -171.90033527 125.42568131 -172 128 C-175.63 128.33 -179.26 128.66 -183 129 C-183.10033388 121.83654674 -183.17214738 114.67351974 -183.21972656 107.50952148 C-183.23960158 105.0823655 -183.26671111 102.65525581 -183.30175781 100.22827148 C-183.66327644 74.51260118 -180.66237305 51.39304915 -167.54003906 28.95751953 C-165.54517892 25.46894705 -164.40721879 23.02432575 -165 19 C-165.92745649 16.26225382 -165.92745649 16.26225382 -167 14 C-165.27227744 12.10283355 -163.54287266 10.20724695 -161.8125 8.3125 C-161.32974609 7.78205078 -160.84699219 7.25160156 -160.34960938 6.70507812 C-159.38084742 5.64529155 -158.4068792 4.59024034 -157.42773438 3.54003906 C-156.06273003 2.06766433 -154.7277979 0.56758054 -153.39453125 -0.93359375 C-151 -3 -151 -3 -148.9296875 -3.0234375 C-148.25164062 -2.80945313 -147.57359375 -2.59546875 -146.875 -2.375 C-140.24714398 -1.22850102 -136.19758866 -5.35423377 -131 -9 C-89.67540732 -35.21073801 -37.76969213 -30.54510967 0 0 Z " fill="#85909D" transform="translate(328,82)"/>
<path d="M0 0 C14.13761926 13.9574316 21.51880003 31.01062899 21.68237305 50.76928711 C21.48848913 70.4135417 14.89322145 87.01349606 1.18237305 101.33178711 C-12.05399059 113.33178711 -12.05399059 113.33178711 -16.81762695 113.33178711 C-16.75961914 114.29858398 -16.70161133 115.26538086 -16.6418457 116.26147461 C-16.35593695 124.51198423 -16.38446537 131.54033513 -21.81762695 138.33178711 C-23.98950195 139.59350586 -23.98950195 139.59350586 -25.81762695 140.33178711 C-25.7712207 141.24959961 -25.72481445 142.16741211 -25.67700195 143.11303711 C-25.28241569 156.52897021 -25.28241569 156.52897021 -29.81762695 162.33178711 C-35.86725068 168.51890228 -41.89932643 170.4829479 -50.31762695 170.70678711 C-57.09635793 170.53418053 -61.6250434 169.18794034 -67.50512695 165.76928711 C-72.84637723 160.1393206 -74.99752688 154.35452377 -75.25512695 146.64428711 C-75.42291294 142.17698522 -75.69508113 139.71914459 -78.75512695 136.39428711 C-79.27977539 135.93151367 -79.80442383 135.46874023 -80.3449707 134.99194336 C-84.12892298 130.72621467 -83.89233837 125.79325789 -83.75512695 120.39428711 C-84.0085305 115.15580295 -84.0085305 115.15580295 -87.04418945 111.11303711 C-89.90953785 109.37646233 -92.83381643 107.85373073 -95.81762695 106.33178711 C-109.27403454 96.83314646 -118.10403188 80.98113789 -121.34887695 65.04663086 C-123.93908508 44.51923143 -120.34773242 26.35689662 -108.6809082 9.18725586 C-97.29011369 -5.43467964 -81.15874366 -15.57612261 -62.81762695 -18.66821289 C-62.02614258 -18.8087207 -61.2346582 -18.94922852 -60.41918945 -19.09399414 C-38.56008436 -22.10779102 -16.05205143 -15.12512032 0 0 Z " fill="#020201" transform="translate(490.817626953125,19.668212890625)"/>
<path d="M0 0 C2.98458098 2.82059302 5.26872044 5.72644108 7.5625 9.125 C19.42449005 25.56107847 36.9531322 35.44319353 56.38671875 40.140625 C57.12192749 40.32125488 57.85713623 40.50188477 58.61462402 40.68798828 C60.4090024 41.12838021 62.20439855 41.56462174 64 42 C64.15447317 49.4480472 64.25816797 56.89566934 64.32958984 64.3449707 C64.35942082 66.86921621 64.40010073 69.39336129 64.45263672 71.91723633 C64.78379965 88.25785442 63.8412461 102.61900471 58 118 C57 119 57 119 54.42502499 119.12304783 C52.68974969 119.12166514 52.68974969 119.12166514 50.91941833 119.12025452 C49.95646012 119.12153615 49.95646012 119.12153615 48.9740482 119.12284368 C46.80745946 119.12450021 44.64094693 119.11897433 42.47436523 119.11352539 C40.92743939 119.11324353 39.38051341 119.11340123 37.83358765 119.1139679 C33.62095968 119.11425592 29.40835994 119.10835849 25.19573855 119.10139394 C20.79814212 119.09516112 16.40054511 119.09455666 12.00294495 119.09336853 C3.66959487 119.090255 -4.66374215 119.08204132 -12.99708647 119.07201904 C-22.48181254 119.06085857 -31.96653922 119.05534762 -41.45127022 119.05032361 C-60.96752089 119.03985873 -80.4837594 119.02225887 -100 119 C-104.75074896 106.25685455 -107.47240972 94.93325322 -107.29296875 81.26171875 C-107.28872391 80.01493851 -107.28447906 78.76815826 -107.28010559 77.4835968 C-107.26348433 73.5513328 -107.22586318 69.61960574 -107.1875 65.6875 C-107.17071336 63.0006641 -107.15854037 60.31381388 -107.14648438 57.62695312 C-107.11363521 51.08445617 -107.06360397 44.54226647 -107 38 C-106.41654312 37.94825119 -105.83308624 37.89650238 -105.23194885 37.84318542 C-102.53055979 37.60127919 -99.82974878 37.35339965 -97.12890625 37.10546875 C-95.75297302 36.98359192 -95.75297302 36.98359192 -94.34924316 36.85925293 C-59.9060891 33.6674044 -28.20613834 19.52424895 0 0 Z " fill="#F8DACD" transform="translate(278,158)"/>
<path d="M0 0 C12.24193763 9.09817473 20.90491957 20.37666943 23.8515625 35.56640625 C26.06180661 51.15444365 22.50353456 65.4841359 13.609375 78.45703125 C7.30877612 86.65724889 -0.38215694 91.87686777 -9.55078125 96.48046875 C-11.84226947 97.52225668 -11.84226947 97.52225668 -12.703125 99.70703125 C-12.80769225 101.18105151 -12.85827297 102.65913819 -12.87890625 104.13671875 C-12.90275391 105.01457031 -12.92660156 105.89242187 -12.95117188 106.796875 C-12.99395449 108.64560244 -13.02530605 110.49463164 -13.04492188 112.34375 C-13.25349823 118.9696871 -13.25349823 118.9696871 -15.30859375 122.33984375 C-17.703125 123.70703125 -17.703125 123.70703125 -24.703125 123.70703125 C-24.703125 103.24703125 -24.703125 82.78703125 -24.703125 61.70703125 C-20.413125 61.37703125 -16.123125 61.04703125 -11.703125 60.70703125 C-4.70942891 58.08439522 -1.03448129 54.92567597 2.609375 48.33203125 C3.71181464 44.12271627 4.3501879 39.68973788 2.234375 35.70703125 C-0.83527635 34.12269507 -3.31993643 34.34454676 -6.703125 34.70703125 C-10.38764889 36.86692456 -10.63884993 40.80468933 -11.703125 44.70703125 C-13.703125 46.70703125 -13.703125 46.70703125 -17.640625 47.01953125 C-20.10890397 46.93918944 -21.41431683 46.87068921 -23.578125 45.64453125 C-24.703125 43.70703125 -24.703125 43.70703125 -25.703125 40.14453125 C-26.37452437 36.46099689 -26.37452437 36.46099689 -29.703125 34.70703125 C-33.24512141 34.29029918 -33.24512141 34.29029918 -36.703125 34.70703125 C-38.88280381 37.64159147 -38.88280381 37.64159147 -39.703125 41.26953125 C-40.703125 44.70703125 -40.703125 44.70703125 -42.703125 46.70703125 C-45.6334334 46.98610824 -47.8571479 47.16869899 -50.703125 46.70703125 C-54.09697839 43.87882009 -54.53520819 39.83367064 -55.703125 35.70703125 C-58.75296496 34.18211127 -61.3454619 34.47140577 -64.703125 34.70703125 C-66.80554944 35.55923048 -66.80554944 35.55923048 -67.703125 37.70703125 C-68.4488055 43.99205265 -67.33665282 48.50194691 -63.703125 53.70703125 C-56.47634278 61.33959536 -50.73919209 60.91874074 -39.703125 61.70703125 C-39.703125 82.16703125 -39.703125 102.62703125 -39.703125 123.70703125 C-46.703125 123.70703125 -46.703125 123.70703125 -48.61743164 122.48999023 C-49.9859031 120.24264438 -50.07182984 118.80456625 -50.07421875 116.1796875 C-50.09162109 115.30505859 -50.10902344 114.43042969 -50.12695312 113.52929688 C-50.13604828 111.69337452 -50.14127326 109.8574288 -50.14257812 108.02148438 C-50.1739492 102.83917095 -50.1739492 102.83917095 -52.37109375 98.29296875 C-55.04601426 96.47384358 -57.74381872 94.83092389 -60.578125 93.26953125 C-73.90487106 85.59899785 -82.91283272 74.05540451 -87.4453125 59.2890625 C-90.91725487 44.71166061 -88.56990045 31.20352119 -81.265625 18.26953125 C-72.60889377 4.3751139 -59.85873621 -5.07352496 -43.82714844 -8.8894043 C-28.77265643 -11.74975778 -12.75028532 -8.45027299 0 0 Z " fill="#F8E19B" transform="translate(472.703125,25.29296875)"/>
<path d="M0 0 C41.77645848 -0.09154811 83.55290538 -0.16203496 125.32944429 -0.20426132 C130.2611336 -0.20926417 135.19282271 -0.21444145 140.12451172 -0.21972656 C141.59723238 -0.22130043 141.59723238 -0.22130043 143.09970498 -0.22290608 C158.99875299 -0.24031306 174.89774317 -0.27185237 190.79675686 -0.30861118 C207.1096509 -0.34601245 223.42251464 -0.36823413 239.73544979 -0.37635398 C249.80206055 -0.38184344 259.86850786 -0.39918373 269.93506831 -0.43166587 C276.83734715 -0.45280368 283.73954143 -0.4592017 290.64185029 -0.45400551 C294.62462757 -0.45144259 298.60711913 -0.45538152 302.58984566 -0.4768219 C306.23821634 -0.49631876 309.88610976 -0.49725005 313.53450263 -0.48359558 C315.47516242 -0.48111112 317.41581677 -0.49833507 319.35639477 -0.51632524 C327.23972055 -0.46229236 333.25168577 0.23034811 339.05859375 6.0703125 C339.51363281 6.74835938 339.96867187 7.42640625 340.4375 8.125 C340.91058594 8.80820312 341.38367188 9.49140625 341.87109375 10.1953125 C344.20254363 13.92240539 344.13246991 16.44557847 344.14717102 20.86831665 C344.15084771 21.58308619 344.1545244 22.29785573 344.1583125 23.03428495 C344.16937044 25.44164635 344.17319678 27.84896463 344.17700195 30.25634766 C344.18326514 31.97763202 344.18991181 33.69891502 344.19691467 35.42019653 C344.21434081 40.1064115 344.2248814 44.79261625 344.2331202 49.47885561 C344.23826824 52.40666538 344.24434415 55.33447198 344.25063133 58.26227951 C344.26969018 67.42249212 344.28391835 76.58269665 344.2922433 85.74292529 C344.30201128 96.31667457 344.32831641 106.89021427 344.36874419 117.46388972 C344.39891528 125.63553915 344.41371323 133.80712856 344.41702431 141.9788326 C344.41937418 146.85958544 344.42832599 151.74011456 344.45348549 156.62080765 C344.47678777 161.21567114 344.48099077 165.81016397 344.47072411 170.40507126 C344.47022912 172.08846012 344.4765387 173.77186735 344.49028015 175.4552002 C344.62612187 193.08752227 344.62612187 193.08752227 338.58801746 199.49938393 C333.45070602 204.13188953 328.94780084 205.2550467 322.16796875 205.1953125 C320.87568359 205.18886719 319.58339844 205.18242187 318.25195312 205.17578125 C316.8971327 205.15907327 315.54231499 205.14214342 314.1875 205.125 C312.81315749 205.11496003 311.43880797 205.10583596 310.06445312 205.09765625 C306.70945683 205.07411242 303.35481801 205.04122567 300 205 C300.63228516 203.75283203 300.63228516 203.75283203 301.27734375 202.48046875 C301.82519531 201.39378906 302.37304688 200.30710937 302.9375 199.1875 C303.48277344 198.10855469 304.02804687 197.02960938 304.58984375 195.91796875 C306.78323114 191.37929733 307.12706151 188.13647361 307.13371277 183.12532043 C307.13597833 182.42194713 307.13824388 181.71857382 307.14057809 180.99388617 C307.14692076 178.63108006 307.14608854 176.26833127 307.14526367 173.90551758 C307.14825508 172.21364264 307.15165757 170.52176838 307.15544128 168.82989502 C307.16428946 164.22843896 307.1666198 159.62700148 307.16725707 155.02553773 C307.16820607 151.1838218 307.17188445 147.34211021 307.17542917 143.50039595 C307.1835776 134.43344859 307.18601313 125.36651115 307.18530273 116.29956055 C307.18470251 106.95144426 307.19524236 97.60338579 307.2110464 88.25528413 C307.22413312 80.22798606 307.22948612 72.20070685 307.22884732 64.1733982 C307.22859258 59.37992459 307.23143066 54.58650229 307.24202538 49.79303932 C307.25172484 45.2811377 307.25177285 40.76933623 307.24450874 36.25743103 C307.24346505 34.60469097 307.24581298 32.95194461 307.2518692 31.29921532 C307.2596231 29.03589282 307.25492206 26.77291325 307.24723816 24.50959778 C307.24778293 23.24510709 307.24832769 21.9806164 307.24888897 20.67780781 C306.76859452 13.58054407 305.17361615 7.17361615 300 2 C298.39983206 1.89794021 296.79515352 1.86601337 295.19174099 1.8613348 C293.62122641 1.85312313 293.62122641 1.85312313 292.01898426 1.84474558 C290.85461261 1.84376747 289.69024096 1.84278936 288.49058533 1.84178162 C286.65170513 1.83437465 286.65170513 1.83437465 284.77567583 1.82681805 C281.35745412 1.8140603 277.93927357 1.80580353 274.52103746 1.79939139 C270.84070874 1.79141035 267.16040098 1.77770473 263.48008728 1.76467896 C257.09856253 1.7428835 250.71703569 1.72475029 244.33549309 1.70907402 C235.10874787 1.68640326 225.88202582 1.65825662 216.65530021 1.62875474 C201.68712116 1.58104449 186.71893266 1.53778964 171.75073242 1.49731445 C157.20677962 1.45797697 142.66283523 1.41655496 128.11889648 1.37231445 C127.22306053 1.36959018 126.32722458 1.36686591 125.40424209 1.36405908 C120.91029124 1.35037989 116.41634052 1.33665956 111.92238986 1.32291877 C74.61494403 1.20890008 37.30748026 1.10210269 0 1 C0 0.67 0 0.34 0 0 Z " fill="#C1C5CC" transform="translate(92,292)"/>
<path d="M0 0 C3.125 2.25 3.125 2.25 5 4 C8.55038751 2.29231921 11.79398379 0.25801816 15.09765625 -1.87890625 C20.80548619 -5.24265819 27.62476496 -4.67835662 34 -4 C43.13595462 -1.10765923 49.710379 4.00994385 54.30859375 12.3828125 C58.0292468 20.59657252 58.17103172 27.55947291 55.0625 36 C52.10315844 42.46944947 47.95175775 46.97699394 43 52 C41.30092873 53.80374111 39.61406508 55.61842862 37.92773438 57.43408203 C36.12433737 59.37571343 34.31475969 61.31141709 32.50390625 63.24609375 C25.65510452 70.57459268 18.82318293 77.91785488 12.33984375 85.57421875 C10.21898865 87.83110538 8.90089987 88.01346992 5.78125 88.4375 C0.64987274 87.84378693 -1.13525398 85.70858868 -4.5 82 C-5.02980469 81.44699219 -5.55960938 80.89398438 -6.10546875 80.32421875 C-8.97047941 77.30659251 -11.71564722 74.19070074 -14.4453125 71.05078125 C-17.97871446 66.98844446 -21.66483515 63.08779395 -25.375 59.1875 C-45.61532698 37.69903619 -45.61532698 37.69903619 -45.48046875 23.06860352 C-45.18415517 14.6226918 -42.3127002 8.88456519 -36.25 3.125 C-25.23654929 -5.55039972 -12.47857657 -6.86553655 0 0 Z " fill="#030303" transform="translate(251,360)"/>
<path d="M0 0 C31.80849646 -0.59191305 58.75038755 5.58013058 84 26 C84.80308594 26.64839844 85.60617187 27.29679687 86.43359375 27.96484375 C107.46784699 45.79109997 120.00787105 72.06207728 124 99 C124.08189682 100.93923283 124.11791669 102.88082094 124.11352539 104.82177734 C124.11341209 106.50284073 124.11341209 106.50284073 124.11329651 108.21786499 C124.10813522 109.41182892 124.10297394 110.60579285 124.09765625 111.8359375 C124.0962413 113.07042633 124.09482635 114.30491516 124.09336853 115.57681274 C124.08778272 119.50956675 124.07523275 123.44226328 124.0625 127.375 C124.05691912 130.04557208 124.05292058 132.71614363 124.04882812 135.38671875 C124.03781792 141.92450122 124.02056297 148.46224088 124 155 C120.37 154.67 116.74 154.34 113 154 C112.94392578 151.88658203 112.94392578 151.88658203 112.88671875 149.73046875 C112.82106503 147.88278561 112.75461749 146.03513055 112.6875 144.1875 C112.66494141 143.25873047 112.64238281 142.32996094 112.61914062 141.37304688 C112.58369141 140.48037109 112.54824219 139.58769531 112.51171875 138.66796875 C112.48553467 137.84578857 112.45935059 137.0236084 112.43237305 136.17651367 C111.90028966 133.4980702 111.18325204 132.61014447 109 131 C106.18372356 130.42275079 103.46820856 129.98442558 100.625 129.625 C82.64396434 126.96140877 65.30454874 118.89394079 53.89453125 104.30859375 C52.19891068 101.90675595 50.57646208 99.48113634 49 97 C48.34 96.01 47.68 95.02 47 94 C47.48454519 89.27568437 50.96178476 86.88155898 54.25 83.8125 C68.60312612 70.54661445 68.60312612 70.54661445 76.3125 53.5625 C76.3624239 50.03962222 76.3624239 50.03962222 74.375 48.1875 C72.00252641 46.8812586 72.00252641 46.8812586 69.1875 46.375 C65.04709599 44.58894337 63.52189712 42.13864235 60.8984375 38.55859375 C50.73090043 24.85543165 37.81669883 15.09576473 23 7 C22.01773437 6.45988281 21.03546875 5.91976562 20.0234375 5.36328125 C13.41797189 2.04151252 7.36179201 1.14132585 0 1 C0 0.67 0 0.34 0 0 Z " fill="#757F8A" transform="translate(244,56)"/>
<path d="M0 0 C4.70322127 3.09985038 6.72618616 5.99100859 7.9375 11.4375 C8.07542969 12.19289063 8.21335938 12.94828125 8.35546875 13.7265625 C8.73606049 15.99470162 8.73606049 15.99470162 9.75 18.8125 C11.37418745 18.89340971 12.99951745 18.95164995 14.625 19 C15.52992188 19.03480469 16.43484375 19.06960938 17.3671875 19.10546875 C18.15351563 19.00878906 18.93984375 18.91210938 19.75 18.8125 C21.67461509 15.92557736 22.04851465 14.77030238 22.5625 11.5 C23.70376788 5.9823742 26.03149245 2.87481607 30.5625 -0.5625 C35.36934088 -1.93588311 39.3935853 -1.68311307 44 0 C47.70883787 2.44446132 50.130181 4.51577343 51.3203125 8.92578125 C52.16246685 14.2564391 51.51989991 17.05522795 48.75 21.8125 C46.98046875 24.05859375 46.98046875 24.05859375 44.9375 26.25 C44.14601563 27.1059375 43.35453125 27.961875 42.5390625 28.84375 C41.60969056 29.8336297 40.67997731 30.82318901 39.75 31.8125 C38.63237241 33.01000608 37.51521049 34.20794689 36.3984375 35.40625 C34.60251377 37.33216299 32.80572928 39.25723284 31.00610352 41.1796875 C25.86450931 46.67377209 20.7907819 52.22582697 15.75 57.8125 C15.03585937 57.09707031 14.32171875 56.38164062 13.5859375 55.64453125 C11.76445661 53.82240944 9.93555004 52.00886133 8.1015625 50.19921875 C3.45069226 45.59499048 -1.11158948 40.97561382 -5.35546875 35.98828125 C-6.89217168 34.22344923 -8.45480851 32.50343173 -10.05078125 30.79296875 C-10.54707031 30.25986084 -11.04335937 29.72675293 -11.5546875 29.17749023 C-12.53935293 28.12283321 -13.52749255 27.07140616 -14.51953125 26.02368164 C-19.42333918 20.75678992 -20.72358355 17.40004869 -20.56640625 10.28515625 C-19.96055018 5.55050326 -17.55433221 2.89944351 -14 -0.0625 C-9.0209333 -2.09939092 -4.91636794 -1.79636521 0 0 Z " fill="#E275B6" transform="translate(241.25,372.1875)"/>
<path d="M0 0 C2.01458117 1.42780995 3.81381992 2.9492407 5.63671875 4.61328125 C6.30058594 5.16371094 6.96445312 5.71414062 7.6484375 6.28125 C14.0215145 11.97453212 17.19330322 18.9516817 20.63671875 26.61328125 C16.96612293 27.83681319 16.16300313 27.24574501 12.63671875 25.86328125 C-13.81113897 16.7738027 -43.15251049 18.87635766 -69.36328125 27.61328125 C-67.76770218 17.53212256 -61.39918078 8.68165655 -53.36328125 2.61328125 C-36.16619152 -7.73669666 -17.98298626 -10.5520002 0 0 Z " fill="#747E89" transform="translate(281.36328125,21.38671875)"/>
<path d="M0 0 C3 1 3 1 4.46484375 3.89453125 C12.27545504 23.82334515 13.62549032 42.70446034 13 64 C-0.61467671 62.5245178 -12.05373899 53.12639378 -20.5 42.75 C-27.14441655 34.13478193 -27.14441655 34.13478193 -26.74951172 31.03173828 C-25.90222661 28.73496086 -25.00810062 27.69932352 -23.2265625 26.0390625 C-22.65381592 25.49145264 -22.08106934 24.94384277 -21.4909668 24.37963867 C-20.87519775 23.80060791 -20.25942871 23.22157715 -19.625 22.625 C-12.67837899 15.91461601 -6.80431231 8.69775788 -1 1 C-0.67 0.67 -0.34 0.34 0 0 Z " fill="#848F9C" transform="translate(318,117)"/>
<path d="M0 0 C2.875 2.625 2.875 2.625 5 5 C7.5245746 3.91803946 9.00576142 2.99366244 10.875 0.9375 C13.61885302 -1.56424834 15.30983096 -1.92469043 19 -2 C23.56521739 0.13043478 23.56521739 0.13043478 25 3 C25.80327869 9.8852459 25.80327869 9.8852459 23.66015625 12.859375 C22.18213733 14.32000547 20.59634483 15.66971264 19 17 C20.08196054 19.5245746 21.00633756 21.00576142 23.0625 22.875 C25.56424834 25.61885302 25.92469043 27.30983096 26 31 C24.76356597 33.86332091 23.66847461 35.49288133 21.1875 37.375 C17.98533808 38.28990341 16.18427482 38.01896794 13 37 C10.74729409 35.1517572 8.95316425 33.1856838 7 31 C4.4754254 32.08196054 2.99423858 33.00633756 1.125 35.0625 C-1.61885302 37.56424834 -3.30983096 37.92469043 -7 38 C-10.52906067 36.39588152 -11.82772908 35.25840638 -14 32 C-14 28.50140821 -13.80091262 26.01611629 -11.58984375 23.2109375 C-10.11995163 21.7445203 -8.56462465 20.36488533 -7 19 C-8.22539208 16.10361872 -9.46342204 14.51502345 -11.6875 12.1875 C-14 9 -14 9 -14 5.3125 C-12.62204724 0.7480315 -12.62204724 0.7480315 -10 -1 C-6.27689923 -2.66897621 -3.61141906 -1.62145346 0 0 Z " fill="#000000" transform="translate(79,123)"/>
<path d="M0 0 C2.32342794 1.82229643 4.04354795 3.7572379 6 6 C8.8848274 4.82469995 10.2379658 3.73698517 12.375 1.375 C15 -1 15 -1 18 -1.5625 C21.73785618 -0.86165197 23.39432914 0.24543366 26 3 C27.41287288 6.35557309 27.13567085 7.65011202 25.8125 11.0625 C24.10748146 13.8258059 22.40771377 15.84136007 20 18 C21.22522843 20.89599448 22.4904796 22.5246991 24.6875 24.875 C27 28 27 28 27.0625 31.125 C25.82481182 34.47403861 24.95552697 35.97779734 22 38 C18.35948119 38.68689034 16.12390394 38.75655791 12.9921875 36.6484375 C11.25078168 35.16083982 9.60190345 33.6359865 8 32 C5.45716593 33.18844034 3.78684744 34.19586992 1.6875 36.125 C-1.80425463 38.56110788 -3.82186289 38.5317629 -8 38 C-10.375 36.9375 -10.375 36.9375 -12 35 C-13.1875 31.8125 -13.1875 31.8125 -13 28 C-10.9774481 25.00285056 -8.60346291 22.49958409 -6 20 C-7.17720912 17.49777075 -8.22493676 15.74098191 -10.0625 13.625 C-12.32465984 10.56013828 -13 8.80706038 -13 5 C-9.22976187 -0.85036952 -6.73978883 -1.68494721 0 0 Z " fill="#000000" transform="translate(18,39)"/>
<path d="M0 0 C2.25270591 1.8482428 4.04683575 3.8143162 6 6 C8.89638128 4.77460792 10.48497655 3.53657796 12.8125 1.3125 C16 -1 16 -1 19.6875 -1.0625 C23.29186477 0.093617 24.29761394 0.68980488 26 4 C27.07790951 6.57039961 27.07228948 7.71807102 26.375 10.4375 C24.70629424 13.54736073 22.58389387 15.62009775 20 18 C21.08196054 20.5245746 22.00633756 22.00576142 24.0625 23.875 C26.56424834 26.61885302 26.92469043 28.30983096 27 32 C24.86956522 36.56521739 24.86956522 36.56521739 22 38 C15.1147541 38.80327869 15.1147541 38.80327869 12.140625 36.66015625 C10.67999453 35.18213733 9.33028736 33.59634483 8 32 C5.45726886 33.13010273 3.79746144 34.19128642 1.75 36.125 C-2.15862371 38.78997071 -4.32442868 38.52788708 -9 38 C-11.73883355 36.40970955 -11.94967699 35.16534703 -12.875 32.125 C-13.02705042 28.32373944 -12.28498382 26.99411673 -10 24 C-8.70420353 22.63015802 -7.38007251 21.2848951 -6 20 C-7.08196054 17.4754254 -8.00633756 15.99423858 -10.0625 14.125 C-12.56424834 11.38114698 -12.92469043 9.69016904 -13 6 C-11.76356597 3.13667909 -10.66847461 1.50711867 -8.1875 -0.375 C-4.98533808 -1.28990341 -3.18427482 -1.01896794 0 0 Z " fill="#000000" transform="translate(18,226)"/>
<path d="M0 0 C2.26060887 1.8412199 4.04567001 3.81301167 6 6 C8.52437686 4.9181242 9.9774606 4.02564829 11.8125 1.9375 C14.83583795 -0.74031361 17.00616317 -0.92993269 21 -1 C23.94755732 0.34562399 25.54277272 1.08554544 27 4 C27.5 6.625 27.5 6.625 27 10 C24.90720778 12.90898118 22.5247905 15.46232791 20 18 C21.29915544 20.87756859 22.20428516 22.18482943 24.625 24.375 C27 27 27 27 27.5625 30 C26.84202557 33.8425303 25.99097304 35.45767292 23 38 C18.77441481 38.76199077 16.5408642 39.00693009 12.92578125 36.64453125 C11.19298049 35.16479673 9.57089628 33.6494411 8 32 C5.43617863 33.17596765 4.07610938 33.90758146 2.25 36.125 C-0.62519228 38.52099357 -2.4361079 38.59044898 -6.09375 38.37890625 C-8 38 -8 38 -10.5 36.4375 C-12.64936109 32.94478822 -12.68534335 31.04352577 -12 27 C-10.24934749 24.39931967 -8.23670317 22.19010518 -6 20 C-7.18844034 17.45716593 -8.19586992 15.78684744 -10.125 13.6875 C-12.57158667 10.18072577 -12.61001008 8.19381929 -12 4 C-8.31567715 -0.66680894 -5.72942718 -1.65271938 0 0 Z " fill="#000000" transform="translate(481,226)"/>
<path d="M0 0 C7.7665066 3.28124981 12.69473824 7.69689155 16.41796875 15.28125 C17.30818125 18.17444061 17.57989689 20.82115626 17.60546875 23.84375 C17.61964844 24.60816406 17.63382812 25.37257812 17.6484375 26.16015625 C17.41796875 28.28125 17.41796875 28.28125 15.41796875 31.28125 C12.36406936 32.08227279 10.46748774 32.56166554 7.41796875 32.28125 C4.48046875 30.28125 4.48046875 30.28125 2.41796875 27.28125 C2.05036144 24.95307036 1.71555294 22.6194115 1.41796875 20.28125 C-0.29188381 17.57398345 -1.59802881 16.56449556 -4.671875 15.6796875 C-8.50612236 15.02895001 -10.87919595 14.96039041 -14.45703125 16.59375 C-17.06474696 19.89174339 -17.82363577 22.87205695 -18.7109375 26.94140625 C-19.78748191 29.83311074 -20.9405907 30.74655828 -23.58203125 32.28125 C-27.09193021 32.79311027 -28.87657888 32.68966979 -31.95703125 30.90625 C-34.50185047 26.79538819 -34.28201979 22.98319322 -33.58203125 18.28125 C-30.73494788 9.49639918 -24.31564977 4.71997144 -16.58203125 0.28125 C-11.82363001 -2.09795062 -4.99990232 -1.39180337 0 0 Z " fill="#050404" transform="translate(298.58203125,204.71875)"/>
<path d="M0 0 C6.30626886 3.75167463 10.55679694 8.24328909 12.99609375 15.1875 C13.57808669 19.26145057 13.8752001 23.14967358 12.99609375 27.1875 C10.62540535 29.51817678 9.35947501 30.12564787 6.05859375 30.6875 C1.85538851 30.00126241 0.5187502 28.57506723 -2.00390625 25.1875 C-2.37151356 22.85932036 -2.70632206 20.5256615 -3.00390625 18.1875 C-4.71375881 15.48023345 -6.01990381 14.47074556 -9.09375 13.5859375 C-12.92799736 12.93520001 -15.30107095 12.86664041 -18.87890625 14.5 C-21.48662196 17.79799339 -22.24551077 20.77830695 -23.1328125 24.84765625 C-24.20937452 27.73940805 -25.3648851 28.64929959 -28.00390625 30.1875 C-31.00390625 30.6875 -31.00390625 30.6875 -34.00390625 30.1875 C-37.2480781 27.45556581 -37.92681077 25.6929037 -38.56640625 21.5 C-38.1418345 14.2411926 -34.37952946 8.0920144 -29.12890625 3.25 C-20.20026722 -3.79980065 -10.23302206 -5.25331614 0 0 Z " fill="#040404" transform="translate(235.00390625,206.8125)"/>
<path d="M0 0 C1.17792114 -0.00315216 2.35584229 -0.00630432 3.56945801 -0.009552 C4.85171265 -0.00752777 6.13396729 -0.00550354 7.45507812 -0.00341797 C8.76085815 -0.00437469 10.06663818 -0.00533142 11.4119873 -0.00631714 C14.17945535 -0.0077938 16.94689116 -0.00564058 19.71435547 -0.00097656 C23.26895462 0.00472073 26.82347827 0.00144155 30.37807465 -0.00454903 C33.75791526 -0.00902294 37.13773536 -0.00589433 40.51757812 -0.00341797 C41.79983276 -0.0054422 43.0820874 -0.00746643 44.40319824 -0.009552 C46.17007996 -0.00482376 46.17007996 -0.00482376 47.97265625 0 C49.0155481 0.00079559 50.05843994 0.00159119 51.13293457 0.00241089 C53.48632812 0.12939453 53.48632812 0.12939453 54.48632812 1.12939453 C54.58506629 3.12739025 54.61604612 5.12896611 54.61132812 7.12939453 C54.61519531 8.76908203 54.61519531 8.76908203 54.61914062 10.44189453 C54.48632812 13.12939453 54.48632812 13.12939453 53.48632812 14.12939453 C51.65060182 14.22844605 49.81105237 14.2573866 47.97265625 14.25878906 C46.79473511 14.26194122 45.61681396 14.26509338 44.40319824 14.26834106 C43.1209436 14.26631683 41.83868896 14.2642926 40.51757812 14.26220703 C39.2117981 14.26316376 37.90601807 14.26412048 36.56066895 14.2651062 C33.7932009 14.26658286 31.02576509 14.26442964 28.25830078 14.25976562 C24.70370163 14.25406834 21.14917798 14.25734751 17.5945816 14.26333809 C14.21474099 14.267812 10.83492089 14.26468339 7.45507812 14.26220703 C6.17282349 14.26423126 4.89056885 14.26625549 3.56945801 14.26834106 C1.80257629 14.26361282 1.80257629 14.26361282 0 14.25878906 C-1.04289185 14.25799347 -2.08578369 14.25719788 -3.16027832 14.25637817 C-5.51367188 14.12939453 -5.51367188 14.12939453 -6.51367188 13.12939453 C-6.61241004 11.13139881 -6.64338987 9.12982295 -6.63867188 7.12939453 C-6.64125 6.03626953 -6.64382812 4.94314453 -6.64648438 3.81689453 C-6.41062552 -0.95577885 -4.25663948 0.00324727 0 0 Z " fill="#3DCEDB" transform="translate(45.513671875,482.87060546875)"/>
<path d="M0 0 C9.48103952 4.44048687 16.06797893 14.50480654 19.8515625 23.8671875 C17.92570312 23.90585937 17.92570312 23.90585937 15.9609375 23.9453125 C-0.24227627 24.41174759 -15.73270728 26.72861076 -31.1484375 31.8671875 C-29.53536901 21.6755275 -23.10370821 13.15138063 -15.1484375 6.8671875 C-4.11634994 -0.25446527 -4.11634994 -0.25446527 0 0 Z " fill="#848F9C" transform="translate(243.1484375,17.1328125)"/>
<path d="M0 0 C8.27586207 0 8.27586207 0 12 3 C14.12738138 5.71424521 14.92909561 7.5239277 15.4375 10.9375 C14.7357326 15.84987178 12.47711298 18.83385818 8.625 21.875 C6 23 6 23 0 23 C0 15.41 0 7.82 0 0 Z " fill="#F3CAB6" transform="translate(357,225)"/>
<path d="M0 0 C0 7.59 0 15.18 0 23 C-6.17733665 23 -7.45874419 22.71557294 -12 19 C-14.33031854 16.03414004 -14.47119441 12.76377357 -14.39453125 9.03515625 C-13.68647817 5.38272403 -11.62465368 3.56216192 -9 1 C-7 0 -7 0 0 0 Z " fill="#F5CCB7" transform="translate(156,225)"/>
<path d="M0 0 C6.27 0 12.54 0 19 0 C19 6 19 6 17.6875 8.375 C13.34814154 10.99879814 8.92990498 10.73312699 4 10 C1.3125 8.375 1.3125 8.375 0 6 C0 4.02 0 2.04 0 0 Z " fill="#7E8995" transform="translate(431,164)"/>
<path d="M0 0 C2.5625 0.1875 2.5625 0.1875 4.5625 2.1875 C4.02678571 5.72321429 4.02678571 5.72321429 2.5625 7.1875 C0.0625 7.3125 0.0625 7.3125 -2.4375 7.1875 C-3.4375 6.1875 -3.4375 6.1875 -3.5625 3.6875 C-3.39599509 0.35740177 -3.31519894 0.2550153 0 0 Z " fill="#DFE1E4" transform="translate(69.4375,411.8125)"/>
</svg>
